<?xml version="1.0" encoding="UTF-8"?>
<svg width="522px" height="115px" viewBox="0 0 522 115" version="1.1" xmlns="http://www.w3.org/2000/svg" xmlns:xlink="http://www.w3.org/1999/xlink">
    <!-- Generator: Sketch 53.2 (72643) - https://sketchapp.com -->
    <title>Slice 1</title>
    <desc>Created with Sketch.</desc>
    <defs>
        <linearGradient x1="41.8751001%" y1="27.7451248%" x2="61.9004962%" y2="73.5380596%" id="linearGradient-1">
            <stop stop-color="#055D2C" offset="0%"></stop>
            <stop stop-color="#055D2C" stop-opacity="0.9" offset="26.96%"></stop>
            <stop stop-color="#17692F" stop-opacity="0.7538" offset="54.24%"></stop>
            <stop stop-color="#17692F" stop-opacity="0.5" offset="100%"></stop>
        </linearGradient>
    </defs>
    <g id="Page-1" stroke="none" stroke-width="1" fill="none" fill-rule="evenodd">
        <g id="logo" fill-rule="nonzero">
            <path d="M216.6,8.9 C209.2,2.2 199.6,0.8 187.6,0.8 L151.7,0.8 C151.7,0.8 151.2,0.7 150.7,1.3 C150.4,1.7 150.3,2.2 150.3,2.2 L150.3,112.8 C150.3,113.7 151.1,114.5 152,114.5 L173.3,114.5 L173.3,114.5 C174.2,114.5 175,113.7 175,112.8 L175,112.8 L175,71.9 L187.5,71.9 C198.8,71.9 208.4,68.6 216.1,62.1 C223.9,55.6 227.7,46.4 227.7,34.5 C227.8,24.2 224.1,15.7 216.6,8.9 Z M183.2,52.6 L174.9,52.6 L174.9,18.4 L184.6,18.4 C196.8,18.4 202.9,23.8 202.9,34.6 C202.9,46.6 196.3,52.6 183.2,52.6 Z" id="Shape" fill="#022B54"></path>
            <path d="M337.1,31 C325,31 315.3,35 308.1,43.1 C300.8,51.2 297.2,61.5 297.2,74 C297.2,86 300.7,95.8 307.6,103.4 C314.5,111 324.4,114.9 337.1,114.9 C349.6,114.9 359.4,110.9 366.4,103 C373.4,95 376.9,84.9 376.9,72.6 C376.9,60.5 373.4,50.6 366.5,42.8 C359.5,34.9 349.7,31 337.1,31 Z M348.8,90.2 C346.3,94.5 342.5,96.7 337.3,96.7 C332.1,96.7 328.1,94.5 325.5,90 C322.9,85.6 321.6,79.9 321.6,72.9 C321.6,66 322.9,60.3 325.4,55.9 C328,51.5 331.8,49.3 336.9,49.3 C347.3,49.3 352.5,57.3 352.5,73.2 C352.5,80.3 351.3,85.9 348.8,90.2 Z" id="Shape" fill="#022B54"></path>
            <path d="M455.1,0.4 C451.7,0.4 448.8,1.7 446.4,4.3 C444,6.9 442.8,10 442.8,13.6 C442.8,17.2 444,20.3 446.4,22.9 C448.8,25.5 451.7,26.8 455.1,26.8 C458.5,26.8 461.4,25.5 463.8,22.9 C466.2,20.3 467.4,17.2 467.4,13.6 C467.4,10 466.2,6.8 463.8,4.3 C461.4,1.7 458.5,0.4 455.1,0.4" id="Path" fill="#022B54"></path>
            <path d="M464.8,31.1 L445.5,31.1 C444.6,31.1 443.8,31.9 443.8,32.8 L443.8,113 C443.8,113.9 444.6,114.7 445.5,114.7 L464.8,114.7 C465.8,114.7 466.5,113.9 466.5,113 L466.5,32.8 C466.5,31.8 465.7,31.1 464.8,31.1 Z" id="Path" fill="#022B54"></path>
            <path d="M288,31.4 C288,31.4 288,31.4 288,31.4 L288,31.4 C286.7,31.2 285.2,31.1 283.5,31.1 C278.9,31.1 274.9,32.2 271.4,35 C267.9,37.8 265.4,39.8 263.9,44.5 L263.9,32.9 C263.9,32.9 263.9,32.8 263.9,32.8 C263.9,32.8 263.9,32.7 263.9,32.7 C263.8,31.9 263.2,31.2 262.3,31.1 L262.1,31.1 L242.4,31.1 C242.4,31.1 242.4,31.1 242.3,31.1 C242.3,31.1 242.3,31.1 242.2,31.1 C241.3,31.1 240.7,31.8 240.6,32.6 C240.6,32.7 240.6,32.7 240.6,32.8 C240.6,32.9 240.6,32.9 240.6,33 L240.4,113.1 L240.4,113.1 L240.4,113.1 L240.4,113.1 C240.4,114 241.2,114.8 242.1,114.8 L262.1,114.8 L262.1,114.8 C263,114.8 263.7,114.1 263.8,113.2 L263.8,113 L263.8,113 L263.8,74.2 C263.8,68.1 265.4,63.2 268.5,59.5 C271.6,55.8 275.7,51.7 280.7,51.7 C283.3,51.7 285.3,52 287.4,52.7 L287.4,52.7 C287.5,52.7 287.6,52.7 287.8,52.7 C288.7,52.7 289.4,52 289.5,51.1 L289.5,51 L289.5,50.8 L289.5,33.2 L289.5,32.9 C289.5,32.1 288.8,31.4 288,31.4 Z" id="Path" fill="#022B54"></path>
            <path d="M432.7,4.4 C432.7,3.1 432.7,2.7 432.1,2.3 C430.6,1.1 420.5,0.4 420.5,0.4 C410.8,0.4 403.2,1.5 397.6,7 C392.1,12.4 389.3,20.1 389.3,29.9 L389.3,112.8 L389.3,113.1 C389.4,114 390.1,114.7 391,114.7 L411,114.7 C411.9,114.7 412.7,113.9 412.7,113 L412.7,113 L412.7,51.3 L429.5,51.3 C429.5,51.3 429.5,51.3 429.5,51.3 C429.5,51.3 429.5,51.3 429.5,51.3 C430.4,51.3 431,50.5 431,49.7 C431,49.7 431.2,32.9 431,32.5 C431,32.5 431,31.9 430.6,31.5 C430.3,31.2 430,31.1 429.8,31.1 C429.6,31 412.7,31.2 412.7,31.2 L412.7,29.4 C412.8,28.4 412.4,23.6 414.3,21.1 C415.9,19 420.4,17.7 424.4,17.7 C426.5,17.7 428.2,17.9 430.6,18.7 L430.6,18.7 C430.7,18.7 430.9,18.8 431,18.8 C431.9,18.8 432.7,18 432.7,17.1 C432.7,17.1 432.7,17.1 432.7,17.1 C432.7,17.1 432.7,17.1 432.7,17.1 L432.7,4.4 Z" id="Path" fill="#022B54"></path>
            <path d="M520,94.1 C519.9,94.1 519.7,94.1 519.6,94.2 L519.6,94.2 C516.9,95.5 514,96.1 510.7,96.1 C508.1,96.1 506,95.4 504.4,93.9 C502.8,92.5 502,90.3 502,87.5 L502,51.3 L518.7,51.3 L518.7,51.3 C519.6,51.3 520.4,50.5 520.4,49.6 L520.4,49.6 L520.4,32.8 L520.4,33.2 C520.4,32.3 519.6,31.1 518.7,31.1 C518.6,31.1 518.6,31.1 518.5,31.1 L502,31.1 L502,2.1 L502,2.1 C502,1.2 501.2,0.5 500.3,0.5 L500.3,0.5 L500.3,0.5 L481,0.5 C480.1,0.5 479.3,1.3 479.3,2.2 L479.3,2.2 L479.3,29.4 L479.3,32.4 L479.3,64.5 L479.3,64.5 L479.3,87.3 C479.3,105.3 488.3,114.7 506.2,114.7 C512.1,114.7 516.9,114 520.6,112.7 C520.7,112.7 520.7,112.6 520.8,112.6 C521.4,112.3 521.8,111.7 521.8,111.1 L521.8,95.9 C521.7,94.9 521,94.1 520,94.1 Z" id="Path" fill="#022B54"></path>
            <path d="M134,75.9 L130,31.1 L130,31.1 L130,31.2 L130,31.2 L114.5,43.4 L103.3,52.5 L103.3,52.5 L100,55 C100.4,54.7 100.8,54.6 101.3,54.6 C102.4,54.6 103.3,55.3 103.5,56.3 L103.6,57.1 L106.8,94.2 C106.8,94.2 107,95.5 108.1,96.1 C109.5,96.8 110.5,96 110.5,96 L133.2,78.1 C133.2,78.1 133.7,77.7 133.9,77.2 C134.1,76.5 134,75.9 134,75.9 Z" id="Path" fill="#219C48"></path>
            <path d="M134,75.9 L130,31.1 L130,31.1 L130,31.2 L130,31.2 L114.5,43.4 L103.3,52.5 L103.3,52.5 L100,55 C100.4,54.7 100.8,54.6 101.3,54.6 C102.4,54.6 103.3,55.3 103.5,56.3 L103.6,57.1 L106.8,94.2 C106.8,94.2 107,95.5 108.1,96.1 C109.5,96.8 110.5,96 110.5,96 L133.2,78.1 C133.2,78.1 133.7,77.7 133.9,77.2 C134.1,76.5 134,75.9 134,75.9 Z" id="Path" fill="url(#linearGradient-1)"></path>
            <g id="Group" fill="#022B54">
                <path d="M66.6,38.3 C66.6,37.4 65.8,36.6 65.8,36.6 L20.7,2.1 C20.6,2.1 19.1,0.8 16.9,0.8 L16.7,0.8 C12.8,0.9 9.8,3.9 9.8,7.7 C9.1,15.2 3.5,79.9 3.5,80.1 L0.3,112 C0.3,112 0.1,112.9 0.9,113.9 C1.6,114.8 3.1,114.6 3.1,114.6 L27.2,114.6 C27.2,114.6 28,114.7 28.8,114 C29.5,113.3 29.6,112.6 29.6,112.6 L30.7,98.9 C30.7,98.8 30.7,98.7 30.8,98.6 L34.4,54.9 C34.5,54 35,53.2 35.8,52.9 C36.6,52.6 37.6,52.7 38.2,53.3 C38.2,53.3 43.4,56.2 43.7,56.4 C44,56.6 44.3,56.7 44.9,56.7 C45.6,56.7 46.3,56.2 46.3,56.2 L66,40.2 C65.9,40.1 66.6,39.6 66.6,38.3 Z" id="Path"></path>
                <path d="M110.8,114.6 L135.2,114.6 C135.2,114.6 136.4,114.6 137,113.7 C137.6,112.9 137.5,112.1 137.5,112.1 L135,85.2 C135,85.2 134.9,83.7 133.5,83.2 C132.1,82.8 131.2,83.5 131.2,83.5 L108.7,101.2 C108.7,101.2 108.3,101.6 108,102.2 C107.8,102.7 107.8,103.4 107.8,103.4 L108.3,112.4 C108.3,112.4 108.4,113.2 109,113.8 C109.9,114.6 110.8,114.6 110.8,114.6 Z" id="Path"></path>
            </g>
            <path d="M129.9,31.1 L129.9,31.1 L128,8 C128,4 124.9,0.9 121.2,0.9 C118.9,0.9 117.2,2.2 117.1,2.2 L49.5,57.4 C49.5,57.4 48.7,58.1 48.7,59.2 C48.7,60.4 49.6,61 49.6,61 L71.8,75.1 C71.8,75.1 72.3,75.6 73.2,75.6 C74,75.6 74.7,75.1 74.7,75.1 L76.2,73.9 L129.9,31.1 Z" id="Path" fill="#219C48"></path>
        </g>
    </g>
</svg>